<svg width="512" height="512" viewBox="0 0 512 512" xmlns="http://www.w3.org/2000/svg" transform="rotate(180)">
<!-- 背景 -->
<rect width="512" height="512" fill="none"></rect>

<!-- 時計 -->
<g>

<!-- 時計の外周 -->
<circle cx="256" cy="256" r="215" fill="none" stroke="#000000" stroke-width="16"></circle>

<!-- 時計の目盛り（12個） -->
<!-- 12時 -->
<line x1="256" y1="46" x2="256" y2="76" stroke="#000000" stroke-width="8"></line>
<!-- 1時 -->
<line x1="366" y1="76" x2="351" y2="101" stroke="#000000" stroke-width="6"></line>
<!-- 2時 -->
<line x1="446" y1="146" x2="421" y2="161" stroke="#000000" stroke-width="6"></line>
<!-- 3時 -->
<line x1="466" y1="256" x2="436" y2="256" stroke="#000000" stroke-width="8"></line>
<!-- 4時 -->
<line x1="446" y1="366" x2="421" y2="351" stroke="#000000" stroke-width="6"></line>
<!-- 5時 -->
<line x1="366" y1="436" x2="351" y2="411" stroke="#000000" stroke-width="6"></line>
<!-- 6時 -->
<line x1="256" y1="466" x2="256" y2="436" stroke="#000000" stroke-width="8"></line>
<!-- 7時 -->
<line x1="146" y1="436" x2="161" y2="411" stroke="#000000" stroke-width="6"></line>
<!-- 8時 -->
<line x1="66" y1="366" x2="91" y2="351" stroke="#000000" stroke-width="6"></line>
<!-- 9時 -->
<line x1="46" y1="256" x2="76" y2="256" stroke="#000000" stroke-width="8"></line>
<!-- 10時 -->
<line x1="66" y1="146" x2="91" y2="161" stroke="#000000" stroke-width="6"></line>
<!-- 11時 -->
<line x1="146" y1="76" x2="161" y2="101" stroke="#000000" stroke-width="6"></line>

</g>

<!-- 中央の開いた本 -->
<g width="512" height="512" viewBox="0 0 512 512" transform-origin="center" transform="scale(1.5)">

<!-- 本の外形（開いた状態・上向き） -->
<path d="M 180 200 L 250 190 L 250 310 L 180 320 Q 170 320 170 310 L 170 210 Q 170 200 180 200 Z" fill="#000000" stroke="#000000" stroke-width="6"></path>
<path d="M 262 190 L 332 200 Q 342 200 342 210 L 342 310 Q 342 320 332 320 L 262 310 Z" fill="#000000" stroke="#000000" stroke-width="6"></path>

<!-- 本の背表紙（中央の折り目） -->
<line x1="256" y1="187" x2="256" y2="313" stroke="none" stroke-width="6"></line>

</g>

</svg>